<?xml version="1.0" encoding="iso-8859-1"?>
<!-- Generator: Adobe Illustrator 18.1.1, SVG Export Plug-In . SVG Version: 6.00 Build 0)  -->
<svg version="1.1" id="Capa_1" xmlns="http://www.w3.org/2000/svg" xmlns:xlink="http://www.w3.org/1999/xlink" x="0px" y="0px"
	 viewBox="0 0 612 612" style="enable-background:new 0 0 612 612;" xml:space="preserve">
<g>
	<g>
		<path style="fill:#010002;" d="M587.826,186.966c-16.116-37.332-37.944-69.768-65.484-97.308s-59.976-49.368-97.308-65.484
			S348.024,0,306,0c-28.152,0-55.284,3.672-81.396,11.016s-50.49,17.646-73.134,30.906s-43.248,29.172-61.812,47.736
			s-34.476,39.168-47.736,61.812c-13.26,22.646-23.562,47.022-30.906,73.134C3.672,250.716,0,277.848,0,306
			s3.672,55.284,11.016,81.396c7.344,26.11,17.646,50.487,30.906,73.134c13.26,22.644,29.172,43.249,47.736,61.812
			c18.564,18.564,39.168,34.478,61.812,47.736c22.644,13.26,47.022,23.561,73.134,30.906C250.716,608.328,277.848,612,306,612
			s55.284-3.672,81.396-11.016c26.111-7.346,50.488-17.646,73.135-30.906c22.644-13.259,43.249-29.172,61.812-47.736
			c18.564-18.563,34.478-39.168,47.736-61.812c13.26-22.646,23.561-47.023,30.906-73.135C608.328,361.284,612,334.152,612,306
			C612,263.976,603.942,224.298,587.826,186.966z M474.914,298.044c0,2.04-1.021,4.08-3.062,6.12
			c-2.446,1.632-4.69,1.836-6.73,0.612l-128.521-43.452c-2.854-1.224-4.486-3.264-4.896-6.12s0.613-5.304,3.06-7.344l29.988-21.42
			l4.896-3.672c-8.978-6.936-18.974-12.444-29.988-16.524s-22.646-6.12-34.884-6.12c-14.688,0-28.458,2.754-41.31,8.262
			c-12.852,5.508-24.072,13.056-33.66,22.644s-17.136,20.808-22.644,33.66s-8.262,26.622-8.262,41.31
			c0,14.689,2.754,28.357,8.262,41.004c5.508,12.648,13.056,23.766,22.644,33.354s20.808,17.136,33.66,22.644
			c12.852,5.508,26.622,8.262,41.31,8.262c17.545,0,34.068-4.08,49.572-12.237c15.505-8.16,28.152-19.584,37.944-34.272
			c1.632-2.04,3.775-3.367,6.426-3.978c2.652-0.613,4.998-0.104,7.038,1.527l44.676,31.212c1.635,1.227,2.857,3.063,3.674,5.511
			c0.406,2.445,0,4.689-1.226,6.729c-17.135,24.48-38.658,43.758-64.563,57.834c-25.909,14.076-53.757,21.114-83.541,21.114
			c-24.48,0-47.634-4.692-69.462-14.076s-40.8-22.134-56.916-38.25c-16.116-16.116-28.866-35.088-38.25-56.916
			S126.073,330.481,126.073,306c0-24.48,4.692-47.634,14.076-69.462s22.134-40.8,38.25-56.916
			c16.116-16.116,35.088-28.866,56.916-38.25s44.982-14.076,69.462-14.076s47.43,4.692,68.85,14.076s40.29,22.032,56.61,37.944
			l2.445-1.224l29.988-22.032c3.264-1.632,5.916-1.632,7.956,0c2.856,1.632,4.284,3.876,4.284,6.732h0.002L474.914,298.044
			L474.914,298.044z"/>
	</g>
</g>
<g>
</g>
<g>
</g>
<g>
</g>
<g>
</g>
<g>
</g>
<g>
</g>
<g>
</g>
<g>
</g>
<g>
</g>
<g>
</g>
<g>
</g>
<g>
</g>
<g>
</g>
<g>
</g>
<g>
</g>
</svg>
